# xmcd
#
# Track frame offsets:
#	150
#	21743
#	35521
#	49072
#	62076
#	74404
#	89380
#	107231
#	126406
#	142355
#	160623
#	176779
#	193934
#	205259
#	226358
#	238936
#	254357
#	273011
#	293588
#	311470
#	325885
#
# Disc length: 4583 seconds
#
# Revision: 0
# Processed by: cddbd v1.5.2PL0 Copyright (c) Steve Scherf et al.
# Submitted via: EasyCDDAExtractor 16.0.6.1
#
DISCID=4811e515
DTITLE=Various Artist - Lynwood Soul, Vol. 5
DYEAR=2016
DGENRE=Oldies
TTITLE0=The Royal Cinders - Too Precious To Keep
TTITLE1=Soul Reflections - I Love You Baby 
TTITLE2=Joe Walker - Just To Spend My Life With You 
TTITLE3=Johnny Gilliam - A Broken Hearted Mans Prayer 
TTITLE4=Minzi Berry - Those Teardrops In Your Eyes 
TTITLE5=Marvelle - I Know How It Feel 
TTITLE6=The Chances - People Wake Up Before It's Too Late 
TTITLE7=Sweet Poppa's Show Stoppers - I Love You To The Bone
TTITLE8=Leroy Smith - I Wonder If I Had Your Love
TTITLE9=The Questions - ? 
TTITLE10=Harry and Vee Vee - Without Your Lov’in 
TTITLE11=Brown Sugar - Flowers In May 
TTITLE12=Three Men In Black Prod - I Was Sent Here To Love You
TTITLE13=Little Caeaser and The Euterpeans - It Was Love
TTITLE14=Sugar Ray Roll - My Heart And I (Don’t Believe It) 
TTITLE15=The Two Fellows - Yea , Yea, Yea, Yea 
TTITLE16=Oscar Perry - If It Could Be 
TTITLE17=Deborah Stephens and Johnny J - Make-Up For Lost Time 
TTITLE18=Myron Cephas - It’s Your Life 
TTITLE19=Tony Troutman - I Truly Love You 
TTITLE20=Bobby McClure - To Get What You Want 
EXTD=
EXTT0=
EXTT1=
EXTT2=
EXTT3=
EXTT4=
EXTT5=
EXTT6=
EXTT7=
EXTT8=
EXTT9=
EXTT10=
EXTT11=
EXTT12=
EXTT13=
EXTT14=
EXTT15=
EXTT16=
EXTT17=
EXTT18=
EXTT19=
EXTT20=
PLAYORDER=
